<svg xmlns:xlink="http://www.w3.org/1999/xlink" xmlns="http://www.w3.org/2000/svg" aria-label="Ghim" role="img" viewBox="0 0 24 24" class="x1lliihq x2lah0s x1n2onr6 x19zyb68 x16ye13r x5lhr3w x3egl4o" style="--x-fill:transparent;--x-height:26px;--x-width:26px" width="26"  height="26" ><title fill-opacity="0" fill="#000000">Ghim</title><path d="M12 23.922c-.072 0-.166-.085-.283-.254a3.489 3.489 0 0 1-.352-.654 5.193 5.193 0 0 1-.293-.899 4.25 4.25 0 0 1-.117-.976v-5.576h2.08v5.576c0 .319-.039.644-.117.976a5.202 5.202 0 0 1-.293.899 3.489 3.489 0 0 1-.352.654c-.11.17-.201.254-.273.254ZM5.78 16.49c-.482 0-.87-.14-1.163-.42-.286-.286-.43-.66-.43-1.123 0-.748.2-1.478.596-2.187.397-.71.947-1.345 1.65-1.905a8.372 8.372 0 0 1 2.481-1.328c.95-.332 1.98-.498 3.086-.498 1.107 0 2.132.166 3.076.498a8.372 8.372 0 0 1 2.48 1.329c.71.56 1.26 1.194 1.651 1.904.397.71.596 1.439.596 2.187 0 .463-.143.837-.43 1.123-.286.28-.67.42-1.152.42H5.779Zm.488-1.787h11.455c.182 0 .257-.104.224-.312-.058-.43-.244-.86-.556-1.29-.313-.43-.73-.82-1.25-1.171a6.823 6.823 0 0 0-1.836-.85A7.792 7.792 0 0 0 12 10.758a7.89 7.89 0 0 0-2.314.322 6.85 6.85 0 0 0-1.827.85c-.52.351-.937.742-1.25 1.172-.312.43-.5.859-.566 1.289-.033.208.042.312.225.312Zm-.84-13.086c0-.338.117-.618.351-.84.241-.228.554-.341.938-.341h10.566c.384 0 .694.113.928.341.24.222.361.502.361.84 0 .352-.136.7-.41 1.045a5.307 5.307 0 0 1-.693.723c-.293.26-.632.534-1.016.82-.384.287-.784.573-1.201.86l.361 5.41h-1.875l-.361-6.24c-.013-.17.042-.284.166-.342.3-.163.583-.326.85-.489.273-.162.514-.315.722-.459.209-.143.381-.27.518-.38.137-.118.23-.202.283-.254.046-.053.055-.098.03-.137-.02-.04-.056-.059-.108-.059H8.152a.123.123 0 0 0-.107.059c-.02.039-.01.084.03.137.051.052.146.136.282.253.144.111.32.238.528.381.215.144.452.297.713.46.267.162.553.325.859.488.124.058.182.172.176.341l-.371 6.24H8.377l.371-5.41a32.5 32.5 0 0 1-1.21-.859 19.68 19.68 0 0 1-1.017-.82 5.57 5.57 0 0 1-.683-.723c-.274-.345-.41-.693-.41-1.045Z" fill="#B8B8B8"></path></svg>