<svg xmlns:xlink="http://www.w3.org/1999/xlink" xmlns="http://www.w3.org/2000/svg" aria-label="Search" role="img" viewBox="0 0 26 26" class="x1lliihq x2lah0s x1n2onr6 x19zyb68 x16ye13r x5lhr3w x86x9uj" style="--x-fill: transparent; --x-height: 24px; --x-width: 24px;" width="26"  height="26" ><title fill-opacity="0" fill="#000000">Search</title><path clip-rule="evenodd" d="M3.5 11.5C3.5 7.08172 7.08172 3.5 11.5 3.5C15.9183 3.5 19.5 7.08172 19.5 11.5C19.5 15.9183 15.9183 19.5 11.5 19.5C7.08172 19.5 3.5 15.9183 3.5 11.5ZM11.5 1C5.70101 1 1 5.70101 1 11.5C1 17.299 5.70101 22 11.5 22C13.949 22 16.2023 21.1615 17.9883 19.756L22.3661 24.1339C22.8543 24.622 23.6457 24.622 24.1339 24.1339C24.622 23.6457 24.622 22.8543 24.1339 22.3661L19.756 17.9883C21.1615 16.2023 22 13.949 22 11.5C22 5.70101 17.299 1 11.5 1Z" fill="currentColor" fill-rule="evenodd"></path></svg>