<svg xmlns:xlink="http://www.w3.org/1999/xlink" xmlns="http://www.w3.org/2000/svg" aria-label="Thêm cột" role="img"
    viewBox="0 0 20 20" class="x1lliihq x2lah0s x1n2onr6 x19zyb68 x16ye13r x5lhr3w x3egl4o"
    style="--x-fill: currentColor; --x-height: 20px; --x-width: 20px;" width="20" height="20">
    <title fill="#B8B8B8">Thêm cột</title>
    <path
        d="M3 2C2.58579 2 2.25 2.33579 2.25 2.75V4.25H0.75C0.335786 4.25 0 4.58579 0 5C0 5.41421 0.335786 5.75 0.75 5.75H2.25V7.25C2.25 7.66421 2.58579 8 3 8C3.41421 8 3.75 7.66421 3.75 7.25V5.75H5.25C5.66421 5.75 6 5.41421 6 5C6 4.58579 5.66421 4.25 5.25 4.25H3.75V2.75C3.75 2.33579 3.41421 2 3 2Z"
        fill="currentColor"></path>
    <path clip-rule="evenodd"
        d="M7.25 3.75H16C17.5188 3.75 18.75 4.98122 18.75 6.5V14.5C18.75 16.0188 17.5188 17.25 16 17.25H5C3.48122 17.25 2.25 16.0188 2.25 14.5V9.5H3.75V14.5C3.75 15.1904 4.30964 15.75 5 15.75H7.25V3.75ZM8.75 15.75V5.25H12.25V15.75H8.75ZM13.75 15.75H16C16.6904 15.75 17.25 15.1904 17.25 14.5V6.5C17.25 5.80964 16.6904 5.25 16 5.25H13.75V15.75Z"
        fill="currentColor" fill-rule="evenodd"></path>
</svg>