<svg xmlns:xlink="http://www.w3.org/1999/xlink" xmlns="http://www.w3.org/2000/svg" aria-label="Drafts" role="img" viewBox="0 0 24 24" class="x1lliihq x2lah0s x1n2onr6 x19zyb68 x16ye13r x5lhr3w x86x9uj" style="--x-fill: currentColor; --x-height: 24px; --x-width: 24px;" width="24"  height="24" ><title>Drafts</title><path d="M12.9941 15.5059C13.5464 15.5059 13.9941 15.9536 13.9941 16.5059C13.9941 17.0581 13.5464 17.5058 12.9941 17.5059H6.99414C6.44192 17.5058 5.99417 17.0581 5.99414 16.5059C5.99414 15.9536 6.4419 15.5059 6.99414 15.5059H12.9941Z" fill="currentColor"></path><path clip-rule="evenodd" d="M12 1C12.2652 1 12.5195 1.10543 12.707 1.29297L22.707 11.293C22.8946 11.4805 23 11.7348 23 12V15.5996C23 16.7032 23.001 17.5914 22.9424 18.3086C22.8903 18.9464 22.7877 19.5166 22.5605 20.0459L22.4551 20.2695C22.0057 21.1515 21.3053 21.8789 20.4443 22.3613L20.2695 22.4551C19.6774 22.7568 19.0373 22.8828 18.3086 22.9424C17.5914 23.001 16.7032 23 15.5996 23H8.40039C7.29681 23 6.40858 23.001 5.69141 22.9424C4.96254 22.8828 4.3218 22.7569 3.72949 22.4551C2.84787 22.0057 2.12003 21.3052 1.6377 20.4443L1.54492 20.2695C1.24324 19.6773 1.11716 19.0373 1.05762 18.3086C0.999025 17.5914 1 16.7032 1 15.5996V8.40039C1 7.29678 0.999024 6.40857 1.05762 5.69141C1.11716 4.96269 1.24323 4.32266 1.54492 3.73047L1.6377 3.55567C2.1202 2.69457 2.84835 1.99434 3.73047 1.54492L3.9541 1.43945C4.48343 1.2123 5.05361 1.10974 5.69141 1.05762C6.40858 0.999018 7.29681 1 8.40039 1H12ZM8.40039 3C7.26394 3 6.47129 3.0004 5.85449 3.05078C5.32509 3.09404 4.9924 3.17014 4.74121 3.27832L4.6377 3.32715C4.14381 3.57884 3.73061 3.96161 3.44238 4.43164L3.32715 4.6377C3.19297 4.90101 3.10023 5.24934 3.05078 5.85449C3.0004 6.47128 3 7.26392 3 8.40039V15.5996C3 16.7361 3.00041 17.5287 3.05078 18.1455C3.10023 18.7507 3.19298 19.099 3.32715 19.3623L3.44238 19.5684C3.68952 19.9714 4.02858 20.3105 4.43164 20.5576L4.6377 20.6729L4.74121 20.7217C4.99243 20.8299 5.32512 20.906 5.85449 20.9492C6.47129 20.9996 7.26394 21 8.40039 21H15.5996C16.7361 21 17.5287 20.9996 18.1455 20.9492C18.7507 20.8998 19.099 20.807 19.3623 20.6729L19.5684 20.5576C20.0383 20.2695 20.4211 19.8563 20.6729 19.3623L20.7217 19.2588C20.8299 19.0076 20.906 18.6749 20.9492 18.1455C20.9744 17.8371 20.9867 17.4847 20.9932 17.0674L21 15.5996V13H18.4004C17.944 13 17.5245 12.9981 17.1387 12.9941C17.0915 13.001 17.0433 13.0059 16.9941 13.0059H6.99414C6.44192 13.0058 5.99417 12.5581 5.99414 12.0059C5.99414 11.4536 6.4419 11.0059 6.99414 11.0059H12.0059C11.8715 10.8275 11.7476 10.6405 11.6377 10.4443L11.5449 10.2695C11.2708 9.73138 11.1421 9.15368 11.0762 8.50586H6.99414C6.44194 8.50581 5.99421 8.05806 5.99414 7.50586C5.99414 6.95361 6.4419 6.50591 6.99414 6.50586H11.0039C11.0026 6.22114 11 5.91943 11 5.59961V3H8.40039ZM13 5.59961C13 6.73608 13.0004 7.52872 13.0508 8.14551C13.1002 8.75066 13.193 9.09899 13.3271 9.36231L13.4424 9.56836C13.6895 9.97143 14.0286 10.3105 14.4316 10.5576L14.6377 10.6729L14.7412 10.7217C14.9924 10.8299 15.3251 10.906 15.8545 10.9492C16.4713 10.9996 17.2639 11 18.4004 11H19.5859L13 4.41406V5.59961Z" fill="currentColor" fill-rule="evenodd"></path></svg>