<svg xmlns:xlink="http://www.w3.org/1999/xlink" xmlns="http://www.w3.org/2000/svg" aria-label="Add an emoji" role="img" viewBox="0 0 24 24" class="x1lliihq x2lah0s x1n2onr6 x19zyb68 x16ye13r x5lhr3w x1gaogpn" style="--x-fill: currentColor; --x-height: 20px; --x-width: 20px;" width="24"  height="24" ><title fill="#999999">Add an emoji</title><path d="M15.1885 14.416C15.5111 13.9678 16.1357 13.8659 16.584 14.1885C17.0322 14.5111 17.1341 15.1357 16.8115 15.584C15.6457 17.2039 13.8307 18.0096 12.0078 17.999C12.0052 17.999 12.0026 17.999 12 17.999C11.9972 17.999 11.994 18 11.9912 18C10.1686 18.0103 8.35414 17.2036 7.18848 15.584C6.86591 15.1357 6.96778 14.5111 7.41602 14.1885C7.86427 13.8659 8.48892 13.9678 8.81152 14.416C9.57164 15.4721 10.7594 16.0103 11.9912 16C11.9968 16 12.0032 16 12.0088 16C13.2406 16.0103 14.4284 15.4721 15.1885 14.416Z" fill="#999999"></path><path d="M8.25 9.5C8.94036 9.5 9.5 10.0596 9.5 10.75C9.5 11.4404 8.94036 12 8.25 12C7.55964 12 7 11.4404 7 10.75C7 10.0596 7.55964 9.5 8.25 9.5Z" fill="#999999"></path><path d="M15.75 9.5C16.4404 9.5 17 10.0596 17 10.75C17 11.4404 16.4404 12 15.75 12C15.0596 12 14.5 11.4404 14.5 10.75C14.5 10.0596 15.0596 9.5 15.75 9.5Z" fill="#999999"></path><path clip-rule="evenodd" d="M12 1C18.0751 1 23 5.92487 23 12C23 18.0751 18.0751 23 12 23C5.92487 23 1 18.0751 1 12C1 5.92487 5.92487 1 12 1ZM12 3C7.02944 3 3 7.02944 3 12C3 16.9706 7.02944 21 12 21C16.9706 21 21 16.9706 21 12C21 7.02944 16.9706 3 12 3Z" fill="#999999" fill-rule="evenodd"></path></svg>