<svg xmlns:xlink="http://www.w3.org/1999/xlink" xmlns="http://www.w3.org/2000/svg" aria-label="Add a GIF" role="img" viewBox="0 0 24 24" class="x1lliihq x2lah0s x1n2onr6 x19zyb68 x16ye13r x5lhr3w x1gaogpn" style="--x-fill: currentColor; --x-height: 20px; --x-width: 20px;" width="24"  height="24" ><title fill="#999999">Add a GIF</title><path d="M21 8.40039C21 7.26394 20.9996 6.47128 20.9492 5.85449C20.8998 5.24954 20.8069 4.90189 20.6729 4.63867C20.4211 4.14473 20.0383 3.73057 19.5684 3.44238L19.3623 3.32715C19.099 3.19296 18.7507 3.10023 18.1455 3.05078C17.8371 3.02559 17.4847 3.01333 17.0674 3.00684L15.5996 3H8.40039C7.26396 3 6.4713 3.0004 5.85449 3.05078C5.32515 3.09403 4.99246 3.17015 4.74121 3.27832L4.6377 3.32715C4.07344 3.61476 3.61459 4.07347 3.32715 4.6377C3.19306 4.90091 3.10021 5.24953 3.05078 5.85449C3.0004 6.47127 3 7.26394 3 8.40039V15.5996C3 16.7361 3.00041 17.5287 3.05078 18.1455C3.10021 18.7505 3.19306 19.0981 3.32715 19.3613L3.44238 19.5684C3.73056 20.0384 4.14382 20.4211 4.6377 20.6729L4.74121 20.7217C4.99243 20.8298 5.32513 20.906 5.85449 20.9492C6.4713 20.9996 7.26395 21 8.40039 21H15.5996C16.7361 21 17.5287 20.9996 18.1455 20.9492C18.7507 20.8998 19.0989 20.8071 19.3623 20.6729L19.5684 20.5576C20.0384 20.2694 20.4212 19.8562 20.6729 19.3623L20.7217 19.2588C20.8299 19.0076 20.906 18.675 20.9492 18.1455C20.9996 17.5287 21 16.7361 21 15.5996V8.40039ZM23 15.5996C23 16.7032 23.001 17.5914 22.9424 18.3086C22.8903 18.9464 22.7877 19.5166 22.5605 20.0459L22.4551 20.2695C22.0058 21.1518 21.3052 21.8789 20.4443 22.3613L20.2695 22.4551C19.6773 22.7567 19.0373 22.8828 18.3086 22.9424C17.5914 23.001 16.7032 23 15.5996 23H8.40039C7.29681 23 6.40858 23.001 5.69141 22.9424C5.0536 22.8903 4.48344 22.7877 3.9541 22.5605L3.73047 22.4551C2.84851 22.0057 2.12018 21.3055 1.6377 20.4443L1.54492 20.2695C1.24321 19.6774 1.11716 19.0373 1.05762 18.3086C0.999025 17.5914 1 16.7032 1 15.5996V8.40039C1 7.29681 0.999021 6.40856 1.05762 5.69141C1.11716 4.96271 1.2432 4.32264 1.54492 3.73047L1.6377 3.55567C2.12007 2.69456 2.84778 1.9943 3.72949 1.54492L3.9541 1.43945C4.48345 1.21233 5.05359 1.10973 5.69141 1.05762C6.40858 0.999023 7.29682 1 8.40039 1H15.5996L17.0996 1.00684C17.549 1.01397 17.9501 1.02833 18.3086 1.05762C19.0373 1.11716 19.6773 1.24326 20.2695 1.54492L20.4443 1.63867C21.3052 2.12114 22.0057 2.84834 22.4551 3.73047L22.5605 3.9541C22.7877 4.48343 22.8903 5.05359 22.9424 5.69141C23.001 6.40856 23 7.2968 23 8.40039V15.5996Z" fill="#999999"></path><path d="M7.61368 17.1318C7.19309 17.1361 6.80978 17.0725 6.46327 16.9411C6.11676 16.8092 5.82092 16.6142 5.57621 16.3556C5.3315 16.0966 5.14319 15.7883 5.01128 15.4303C4.87985 15.0724 4.81389 14.6738 4.81389 14.2345V9.76481C4.81389 9.18268 4.92955 8.67463 5.1604 8.24018C5.39125 7.80573 5.71577 7.46878 6.13397 7.22838C6.55217 6.98798 7.04301 6.86801 7.60699 6.86801C8.14276 6.86801 8.61497 6.98128 9.02409 7.20783C9.43273 7.4339 9.75152 7.75985 9.98045 8.18474C10.1744 8.54538 10.2911 8.97109 10.3305 9.46188C10.3314 9.47362 10.3321 9.50117 10.3326 9.54006C10.3392 10.0748 9.90843 10.5133 9.37363 10.5133C8.84636 10.5133 8.41811 10.0866 8.4146 9.55931C8.41426 9.50872 8.41391 9.47597 8.41355 9.47019C8.39614 9.19067 8.3258 8.97694 8.20251 8.82901C8.06391 8.66269 7.87225 8.57952 7.62755 8.57952C7.44737 8.57952 7.29586 8.62158 7.17351 8.70474C7.05116 8.7879 6.95652 8.90548 6.88961 9.05794C6.8227 9.2104 6.78876 9.38342 6.78876 9.57746V14.4152C6.78876 14.5672 6.80883 14.7058 6.84802 14.831C6.88721 14.9553 6.94265 15.0618 7.01434 15.1493C7.08603 15.2372 7.17349 15.3042 7.27769 15.3505C7.3814 15.3969 7.50041 15.4198 7.63471 15.4198C7.80534 15.4198 7.95111 15.3816 8.07107 15.3056C8.19103 15.2291 8.28232 15.1173 8.34493 14.9696C8.40706 14.8214 8.43861 14.6389 8.43861 14.4219V13.1678H8.37241C7.91114 13.1678 7.53721 12.7938 7.53721 12.3326C7.53721 11.8713 7.91114 11.4974 8.37241 11.4974H9.51042C9.97088 11.4974 10.3442 11.8706 10.3442 12.3311V14.2417C10.3442 14.6852 10.2782 15.0862 10.1468 15.4442C10.0149 15.8022 9.82894 16.1071 9.58853 16.359C9.3486 16.6109 9.06423 16.8025 8.73636 16.9339C8.40849 17.0658 8.03426 17.1318 7.61368 17.1318Z" fill="#999999"></path><path d="M11.5701 16.0261V7.97323C11.5701 7.43541 12.0061 6.99942 12.5439 6.99942C13.0817 6.99942 13.5177 7.43541 13.5177 7.97323V16.0261C13.5177 16.5639 13.0817 16.9999 12.5439 16.9999C12.0061 16.9999 11.5701 16.5639 11.5701 16.0261Z" fill="#999999"></path><path d="M14.7785 16.0261V7.79046C14.7785 7.35358 15.1327 6.99942 15.5695 6.99942H18.3509C18.8122 6.99942 19.1861 7.37335 19.1861 7.83462C19.1861 8.29589 18.8122 8.66982 18.3509 8.66982H16.7261V11.3444H18.1363C18.5976 11.3444 18.9715 11.7183 18.9715 12.1796C18.9715 12.6409 18.5976 13.0148 18.1363 13.0148H16.7261V16.0261C16.7261 16.5639 16.2901 16.9999 15.7523 16.9999C15.2145 16.9999 14.7785 16.5639 14.7785 16.0261Z" fill="#999999"></path></svg>