<svg xmlns:xlink="http://www.w3.org/1999/xlink" xmlns="http://www.w3.org/2000/svg" aria-label="Add a location" role="img" viewBox="0 0 24 24" class="x1lliihq x2lah0s x1n2onr6 x19zyb68 x16ye13r x5lhr3w x1gaogpn" style="--x-fill: currentColor; --x-height: 18px; --x-width: 18px;" width="24"  height="24" ><title fill="#999999">Add a location</title><path d="M12 8.5C12.8284 8.5 13.5 9.17157 13.5 10C13.5 10.8284 12.8284 11.5 12 11.5C11.1716 11.5 10.5 10.8284 10.5 10C10.5 9.17157 11.1716 8.5 12 8.5Z" fill="#999999"></path><path clip-rule="evenodd" d="M12 1C16.9936 1 20.9999 5.15938 21 10.1816C21 13.9682 18.8434 17.1594 16.8018 19.332C15.7683 20.4317 14.7309 21.3072 13.9365 21.9092C13.5391 22.2104 13.1973 22.4465 12.9424 22.6113C12.8161 22.693 12.7044 22.7621 12.6133 22.8135C12.5694 22.8382 12.5182 22.8654 12.4668 22.8896C12.4422 22.9012 12.4028 22.9194 12.3555 22.9365C12.3488 22.9389 12.2618 22.9731 12.1367 22.9902L12 23C11.805 23 11.6534 22.9397 11.6445 22.9365C11.5972 22.9194 11.5578 22.9012 11.5332 22.8896C11.4818 22.8654 11.4306 22.8382 11.3867 22.8135C11.2956 22.7621 11.1839 22.693 11.0576 22.6113C10.8027 22.4465 10.4609 22.2104 10.0635 21.9092C9.26909 21.3072 8.23167 20.4317 7.19824 19.332C5.15662 17.1594 3 13.9682 3 10.1816C3.0001 5.15938 7.00643 1 12 1ZM12 3C8.1571 3 5.0001 6.21728 5 10.1816C5 13.2131 6.74582 15.931 8.65527 17.9629C9.59738 18.9654 10.5476 19.7669 11.2715 20.3154C11.5569 20.5317 11.8056 20.7044 12 20.835C12.1944 20.7044 12.4431 20.5317 12.7285 20.3154C13.4524 19.7669 14.4026 18.9654 15.3447 17.9629C17.2542 15.931 19 13.2131 19 10.1816C18.9999 6.21727 15.8429 3 12 3Z" fill="#999999" fill-rule="evenodd"></path></svg>