<svg id="barcelona-splash-screen-logo" width="81" height="93" viewBox="0 0 81 93"
    fill="var(--barcelona-splash-screen-logo-color)" xmlns="http://www.w3.org/2000/svg">
    <path
        d="M41.2132 93H41.1866C27.4123 92.9062 16.8231 88.3313 9.70816 79.399C3.37458 71.4514 0.109716 60.3924 0 46.5335V46.4665C0.109716 32.6043 3.37458 21.5486 9.70816 13.601C16.8231 4.66876 27.4123 0.093777 41.1866 0H41.2132H41.2397C51.799 0.0703328 60.6328 2.80661 67.4983 8.12511C73.9516 13.1254 78.4932 20.2525 81 29.312L73.1537 31.5158C68.908 16.1732 58.1625 8.32941 41.2132 8.20549C30.0222 8.28587 21.5608 11.8293 16.0584 18.7353C10.9051 25.2026 8.24197 34.5434 8.14555 46.4967C8.24529 58.4532 10.9084 67.7941 16.0584 74.258C21.5608 81.164 30.0222 84.7074 41.2132 84.7878C51.3003 84.7141 57.9764 82.3463 63.5286 76.867C69.8655 70.6141 69.7492 62.9445 67.7211 58.2791C66.5275 55.5294 64.3598 53.2385 61.4374 51.5037C60.7026 56.7351 59.0502 60.9819 56.4969 64.1803C53.0924 68.4505 48.2649 70.7849 42.154 71.1165C37.5294 71.3677 33.0743 70.2658 29.6166 68.0118C25.5272 65.3458 23.1334 61.2665 22.8774 56.5241C22.628 51.9123 24.4433 47.6722 27.9874 44.5843C31.3753 41.6336 36.1396 39.9021 41.7684 39.5839C45.9176 39.3495 49.7976 39.5337 53.3849 40.1366C52.9095 37.2596 51.9453 34.9788 50.509 33.331C48.5342 31.0636 45.4788 29.9048 41.4326 29.878C41.396 29.878 41.3594 29.878 41.3195 29.878C38.0713 29.878 33.6594 30.7756 30.8467 34.9889L24.0875 30.4105C27.8511 24.7739 33.9653 21.6725 41.3162 21.6725C41.3727 21.6725 41.4259 21.6725 41.4825 21.6725C53.7739 21.7496 61.0916 29.3221 61.8197 42.548C62.2386 42.7255 62.6476 42.9097 63.0532 43.1006C68.7883 45.8168 72.9808 49.9296 75.1818 54.9935C78.2471 62.0536 78.5297 73.558 69.2239 82.7348C62.1156 89.7479 53.4847 92.9129 41.2397 92.9967H41.2132V93ZM45.0698 47.6957C44.1389 47.6957 43.1947 47.7225 42.2305 47.7794C35.1655 48.1813 30.7636 51.44 31.0129 56.082C31.2756 60.945 36.6018 63.2057 41.7185 62.9277C46.4296 62.6732 52.5604 60.8278 53.5877 48.5497C50.9878 47.9904 48.1286 47.6957 45.0698 47.6957Z">
    </path>
</svg>