<svg xmlns:xlink="http://www.w3.org/1999/xlink" xmlns="http://www.w3.org/2000/svg" aria-label="Attach media" role="img" viewBox="0 0 24 24" class="x1lliihq x2lah0s x1n2onr6 x19zyb68 x16ye13r x5lhr3w x1gaogpn" style="--x-fill: currentColor; --x-height: 20px; --x-width: 20px;" width="24"  height="24" ><title fill="#999999">Attach media</title><path d="M7 5.5C7.82843 5.5 8.5 6.17157 8.5 7C8.5 7.82843 7.82843 8.5 7 8.5C6.17157 8.5 5.5 7.82843 5.5 7C5.5 6.17157 6.17157 5.5 7 5.5Z" fill="#999999"></path><path clip-rule="evenodd" d="M15.5879 1C16.6914 1 17.5797 0.999039 18.2969 1.05762C19.0255 1.11715 19.6657 1.24331 20.2578 1.54492C21.1986 2.02428 21.964 2.78969 22.4434 3.73047C22.745 4.32266 22.8711 4.96271 22.9307 5.69141C22.9893 6.40857 22.9883 7.29681 22.9883 8.40039V15.5996C22.9883 16.7032 22.9893 17.5914 22.9307 18.3086C22.8711 19.0373 22.745 19.6773 22.4434 20.2695C21.964 21.2103 21.1986 21.9757 20.2578 22.4551C19.6657 22.7567 19.0255 22.8829 18.2969 22.9424C17.5797 23.001 16.6914 23 15.5879 23H8.38867C7.28516 23 6.39682 23.001 5.67969 22.9424C4.95105 22.8828 4.3109 22.7567 3.71875 22.4551C2.778 21.9757 2.01255 21.2103 1.5332 20.2695C1.23157 19.6774 1.10543 19.0373 1.0459 18.3086C0.987309 17.5914 0.988282 16.7032 0.988282 15.5996V8.40039C0.988282 7.29682 0.987309 6.40857 1.0459 5.69141C1.10543 4.96273 1.23157 4.32265 1.5332 3.73047C2.01255 2.7897 2.778 2.02429 3.71875 1.54492C4.3109 1.24329 4.95105 1.11716 5.67969 1.05762C6.39682 0.999029 7.28516 1 8.38867 1H15.5879ZM18.3535 11C15.3973 11 12.8711 12.8367 11.8457 15.4355C11.7266 15.7374 11.4676 15.9629 11.1523 16.04C10.8766 16.1073 10.5876 16.0534 10.3555 15.8965L10.2598 15.8232L10.085 15.6777C9.19483 14.9691 8.07361 14.5459 6.85156 14.5459C5.31955 14.546 3.94482 15.2076 2.99121 16.2637C2.99303 17.0572 2.99913 17.6566 3.03906 18.1455C3.0885 18.7506 3.18126 19.099 3.31543 19.3623C3.60298 19.9265 4.06181 20.3853 4.62598 20.6729C4.88931 20.807 5.2377 20.8998 5.84277 20.9492C6.45955 20.9996 7.25232 21 8.38867 21H15.5879C16.7242 21 17.517 20.9996 18.1338 20.9492C18.7389 20.8998 19.0872 20.807 19.3506 20.6729C19.9148 20.3853 20.3736 19.9265 20.6611 19.3623C20.7953 19.099 20.8881 18.7507 20.9375 18.1455C20.9879 17.5287 20.9883 16.736 20.9883 15.5996V11.5156C20.1756 11.1848 19.2876 11 18.3535 11ZM8.38867 3C7.25232 3 6.45955 3.00041 5.84277 3.05078C5.2377 3.10023 4.88931 3.19297 4.62598 3.32715C4.06181 3.61473 3.60298 4.07351 3.31543 4.6377C3.18126 4.90104 3.0885 5.24937 3.03906 5.85449C2.98869 6.47129 2.98828 7.26397 2.98828 8.40039V13.6689C4.10409 12.9582 5.42945 12.5459 6.85156 12.5459C8.19776 12.5459 9.45559 12.918 10.5313 13.5605C12.0767 10.8404 14.9962 9 18.3535 9C19.2696 9.00003 20.1545 9.13661 20.9883 9.3916V8.40039C20.9883 7.26396 20.9879 6.47129 20.9375 5.85449C20.8881 5.24933 20.7953 4.90105 20.6611 4.6377C20.3736 4.0735 19.9148 3.61471 19.3506 3.32715C19.0872 3.193 18.7389 3.10022 18.1338 3.05078C17.517 3.00042 16.7242 3 15.5879 3H8.38867Z" fill="#999999" fill-rule="evenodd"></path></svg>