<svg xmlns:xlink="http://www.w3.org/1999/xlink" xmlns="http://www.w3.org/2000/svg" aria-label="Add a poll" role="img" viewBox="0 0 24 24" class="x1lliihq x2lah0s x1n2onr6 x19zyb68 x16ye13r x5lhr3w x1gaogpn" style="--x-fill: currentColor; --x-height: 20px; --x-width: 20px;" width="24"  height="24" ><title fill="#999999">Add a poll</title><path clip-rule="evenodd" d="M15 17C16.6569 17 18 18.3431 18 20C18 21.6569 16.6569 23 15 23H4C2.34315 23 1 21.6569 1 20C1 18.3431 2.34315 17 4 17H15ZM4 19C3.44771 19 3 19.4477 3 20C3 20.5523 3.44771 21 4 21H15C15.5523 21 16 20.5523 16 20C16 19.4477 15.5523 19 15 19H4Z" fill="#999999" fill-rule="evenodd"></path><path clip-rule="evenodd" d="M20 9C21.6569 9 23 10.3431 23 12C23 13.6569 21.6569 15 20 15H4C2.34315 15 1 13.6569 1 12C1 10.3431 2.34315 9 4 9H20ZM4 11C3.44771 11 3 11.4477 3 12C3 12.5523 3.44771 13 4 13H20C20.5523 13 21 12.5523 21 12C21 11.4477 20.5523 11 20 11H4Z" fill="#999999" fill-rule="evenodd"></path><path clip-rule="evenodd" d="M10 1C11.6569 1 13 2.34315 13 4C13 5.65685 11.6569 7 10 7H4C2.34315 7 1 5.65685 1 4C1 2.34315 2.34315 1 4 1H10ZM4 3C3.44771 3 3 3.44771 3 4C3 4.55229 3.44771 5 4 5H10C10.5523 5 11 4.55229 11 4C11 3.44771 10.5523 3 10 3H4Z" fill="#999999" fill-rule="evenodd"></path></svg>