<svg xmlns:xlink="http://www.w3.org/1999/xlink" xmlns="http://www.w3.org/2000/svg" aria-label="More" role="img" viewBox="0 0 24 24" class="x1lliihq x2lah0s x1n2onr6 x19zyb68 x16ye13r x5lhr3w x86x9uj" style="--x-fill: currentColor; --x-height: 24px; --x-width: 24px;" width="24"  height="24" ><title>More</title><path d="M7 10.75C7.69036 10.75 8.25 11.3096 8.25 12C8.25 12.6904 7.69036 13.25 7 13.25C6.30964 13.25 5.75 12.6904 5.75 12C5.75 11.3096 6.30964 10.75 7 10.75Z" fill="currentColor"></path><path d="M12 10.75C12.6904 10.75 13.25 11.3096 13.25 12C13.25 12.6904 12.6904 13.25 12 13.25C11.3096 13.25 10.75 12.6904 10.75 12C10.75 11.3096 11.3096 10.75 12 10.75Z" fill="currentColor"></path><path d="M17 10.75C17.6904 10.75 18.25 11.3096 18.25 12C18.25 12.6904 17.6904 13.25 17 13.25C16.3096 13.25 15.75 12.6904 15.75 12C15.75 11.3096 16.3096 10.75 17 10.75Z" fill="currentColor"></path><path clip-rule="evenodd" d="M12 1C18.0751 1 23 5.92487 23 12C23 18.0751 18.0751 23 12 23C5.92487 23 1 18.0751 1 12C1 5.92487 5.92487 1 12 1ZM12 3C7.02944 3 3 7.02944 3 12C3 16.9706 7.02944 21 12 21C16.9706 21 21 16.9706 21 12C21 7.02944 16.9706 3 12 3Z" fill="currentColor" fill-rule="evenodd"></path></svg>