<svg xmlns:xlink="http://www.w3.org/1999/xlink" xmlns="http://www.w3.org/2000/svg" aria-label="Quote" role="img" viewBox="0 0 24 24" class="x1lliihq x2lah0s x1n2onr6 x19zyb68 x16ye13r x5lhr3w x86x9uj" style="--x-fill: currentColor; --x-height: 20px; --x-width: 20px;" width="24"  height="24" ><title>Quote</title><path d="M8.54785 7.97363C9.49566 7.97363 10.333 8.47754 10.835 9.28125C11.2692 9.97668 11.7747 11.4065 11.2803 13.1084C10.9133 14.3709 10.103 15.3704 8.99316 15.9219C8.84976 15.9931 8.69808 16.0264 8.54883 16.0264C8.181 16.0262 7.82804 15.8227 7.65332 15.4717C7.40734 14.9767 7.60879 14.3769 8.10254 14.1309C8.50407 13.9314 8.83412 13.6146 9.07227 13.2148C8.90281 13.249 8.72724 13.2676 8.54785 13.2676C7.08809 13.2673 5.90137 12.0796 5.90137 10.6201C5.90163 9.16089 7.08825 7.97386 8.54785 7.97363Z" fill="currentColor"></path><path d="M15.165 7.97363C16.1128 7.97363 16.9492 8.47756 17.4512 9.28125C17.8854 9.97657 18.392 11.4063 17.8975 13.1084C17.5305 14.3709 16.7202 15.3704 15.6104 15.9219C15.4669 15.9931 15.3153 16.0264 15.166 16.0264C14.798 16.0263 14.4443 15.823 14.2695 15.4717C14.0236 14.9766 14.2258 14.3768 14.7197 14.1309C15.1213 13.9314 15.4514 13.6147 15.6895 13.2148C15.52 13.249 15.3445 13.2676 15.165 13.2676C13.7052 13.2675 12.5186 12.0797 12.5186 10.6201C12.5188 9.1608 13.7053 7.97372 15.165 7.97363Z" fill="currentColor"></path><path clip-rule="evenodd" d="M12 1C18.0751 1 23 5.92488 23 12C23 13.6202 22.6483 15.1606 22.0176 16.5479L22.9834 21.8193C23.0425 22.1418 22.9403 22.4737 22.709 22.7061C22.4777 22.9383 22.1469 23.042 21.8242 22.9844L16.5117 22.0342C15.1338 22.6547 13.606 23 12 23C5.92488 23 1 18.0752 1 12C1 5.92481 5.92488 1 12 1ZM12 3C7.02944 3 3 7.02939 3 12C3 16.9706 7.02944 21 12 21C13.414 21 14.7495 20.6748 15.9375 20.0957L16.084 20.0381C16.2347 19.9922 16.3952 19.9818 16.5518 20.0098L20.7559 20.7617L19.9922 16.5928C19.9535 16.3815 19.9842 16.1634 20.0791 15.9707L20.2881 15.5146C20.7462 14.4359 21 13.2487 21 12C21 7.02944 16.9706 3 12 3Z" fill="currentColor" fill-rule="evenodd"></path></svg>