<svg xmlns:xlink="http://www.w3.org/1999/xlink" xmlns="http://www.w3.org/2000/svg" aria-label="" role="img" viewBox="0 0 24 24" class="x1lliihq x2lah0s x1n2onr6 x19zyb68 x16ye13r x5lhr3w x1gaogpn" style="--x-fill: currentColor; --x-height: 20px; --x-width: 20px;" width="24"  height="24" ><title fill="#999999"></title><path d="M22.4551 20.7695C22.0058 21.6518 21.3052 22.3789 20.4443 22.8613L20.2695 22.9551C19.6773 23.2567 19.0373 23.3828 18.3086 23.4424C17.5914 23.501 16.7032 23.5 15.5996 23.5H8.40039C7.29681 23.5 6.40858 23.501 5.69141 23.4424C5.0536 23.3903 4.48344 23.2877 3.9541 23.0605L3.73047 22.9551C2.78971 22.4757 2.0243 21.7106 1.54492 20.7695L3.32715 19.8623C3.61471 20.4266 4.0735 20.8853 4.6377 21.1729L4.74121 21.2217C4.99243 21.3298 5.32513 21.406 5.85449 21.4492C6.4713 21.4996 7.26395 21.5 8.40039 21.5H15.5996C16.7361 21.5 17.5287 21.4996 18.1455 21.4492C18.7507 21.3998 19.0989 21.3071 19.3623 21.1729L19.5684 21.0576C20.0384 20.7694 20.4212 20.3562 20.6729 19.8623L22.4551 20.7695Z" fill="#999999"></path><path d="M15.5996 1.5C16.7032 1.5 17.5914 1.49902 18.3086 1.55762C19.0373 1.61716 19.6773 1.74326 20.2695 2.04492L20.4443 2.13867C21.3052 2.62114 22.0057 3.34834 22.4551 4.23047L22.5605 4.4541C22.7877 4.98343 22.8903 5.55359 22.9424 6.19141C23.001 6.90856 23 7.7968 23 8.90039V16.0996C23 17.2032 23.001 18.0914 22.9424 18.8086C22.8828 19.5373 22.7568 20.1774 22.4551 20.7695L21.5645 20.3154L20.6729 19.8623C20.8069 19.5991 20.8998 19.2505 20.9492 18.6455C20.9996 18.0287 21 17.2361 21 16.0996V8.90039C21 7.76395 20.9996 6.97128 20.9492 6.35449C20.906 5.82503 20.8299 5.49237 20.7217 5.24121L20.6729 5.13867C20.4211 4.64473 20.0383 4.23057 19.5684 3.94238L19.3623 3.82715C19.099 3.69296 18.7507 3.60023 18.1455 3.55078C17.5287 3.5004 16.7361 3.5 15.5996 3.5H8.40039C7.26396 3.5 6.4713 3.5004 5.85449 3.55078C5.24933 3.60023 4.90109 3.69295 4.6377 3.82715L4.43164 3.94238C3.96163 4.2306 3.57876 4.6438 3.32715 5.1377L3.27832 5.24121C3.17014 5.49237 3.09405 5.82502 3.05078 6.35449C3.0004 6.97127 3 7.76394 3 8.90039V16.0996C3 17.2361 3.00041 18.0287 3.05078 18.6455C3.10021 19.2505 3.19307 19.5991 3.32715 19.8623L2.43555 20.3154L1.54492 20.7695C1.24321 20.1774 1.11716 19.5373 1.05762 18.8086C0.999026 18.0914 1 17.2032 1 16.0996V8.90039C1 7.79681 0.999022 6.90856 1.05762 6.19141C1.11716 5.46271 1.2432 4.82264 1.54492 4.23047L1.6377 4.05567C2.12007 3.19456 2.84778 2.4943 3.72949 2.04492C4.32169 1.74327 4.96271 1.61716 5.69141 1.55762C6.40858 1.49902 7.29682 1.5 8.40039 1.5H15.5996Z" fill="#999999"></path><path d="M8.00586 6.50586C8.55812 6.50589 9.00586 6.9536 9.00586 7.50586V13.5H10C10.5523 13.5 11 13.9477 11 14.5C11 15.0523 10.5523 15.5 10 15.5H9.00586V17.5059C9.00579 18.0581 8.55808 18.5058 8.00586 18.5059C7.45362 18.5059 7.00593 18.0581 7.00586 17.5059V15.5H6C5.44778 15.4999 5 15.0522 5 14.5C5 13.9478 5.44778 13.5001 6 13.5H7.00586V7.50586C7.00586 6.95358 7.45358 6.50586 8.00586 6.50586Z" fill="#999999"></path><path d="M16.0059 6.50586C16.5581 6.50589 17.0059 6.9536 17.0059 7.50586V9.5H18C18.5523 9.5 19 9.94772 19 10.5C19 11.0523 18.5523 11.5 18 11.5H17.0059V17.5059C17.0058 18.0581 16.5581 18.5058 16.0059 18.5059C15.4536 18.5059 15.0059 18.0581 15.0059 17.5059V11.5H14C13.4478 11.4999 13 11.0522 13 10.5C13 9.94776 13.4478 9.50007 14 9.5H15.0059V7.50586C15.0059 6.95358 15.4536 6.50586 16.0059 6.50586Z" fill="#999999"></path></svg>