<svg xmlns:xlink="http://www.w3.org/1999/xlink" xmlns="http://www.w3.org/2000/svg" aria-label="Repost" role="img" viewBox="0 0 24 24" class="x1lliihq x2lah0s x1n2onr6 x19zyb68 x16ye13r x5lhr3w x1i0azm7" style="--x-fill: currentColor; --x-height: 18px; --x-width: 18px;" width="24"  height="24" ><title fill="#424242">Repost</title><path d="M11.9996 3C8.88111 3 6.13192 4.58614 4.51629 6.99881H7C7.55228 6.99881 8 7.44653 8 7.99881C8 8.55109 7.55228 8.99881 7 8.99881H2C1.44772 8.99881 1 8.55109 1 7.99881V2.99881C1 2.44653 1.44772 1.99881 2 1.99881C2.55228 1.99881 3 2.44653 3 2.99881V5.67438C4.98982 2.84844 8.27788 1 11.9996 1C16.5583 1 20.4661 3.77182 22.1349 7.71799C22.35 8.22666 22.1121 8.8134 21.6034 9.02851C21.0947 9.24362 20.508 9.00564 20.2929 8.49697C18.926 5.2648 15.7268 3 11.9996 3Z" fill="#424242"></path><path d="M3.70631 15.503C3.4912 14.9944 2.90445 14.7564 2.39578 14.9715C1.88711 15.1866 1.64914 15.7734 1.86425 16.282C3.53304 20.2282 7.44083 23 11.9996 23C15.7213 23 19.0094 21.1516 20.9992 18.3256V21.0012C20.9992 21.5535 21.4469 22.0012 21.9992 22.0012C22.5515 22.0012 22.9992 21.5535 22.9992 21.0012V16.0012C22.9992 15.4489 22.5515 15.0012 21.9992 15.0012H16.9992C16.4469 15.0012 15.9992 15.4489 15.9992 16.0012C15.9992 16.5535 16.4469 17.0012 16.9992 17.0012H19.4829C17.8672 19.4139 15.1181 21 11.9996 21C8.27234 21 5.07315 18.7352 3.70631 15.503Z" fill="#424242"></path><path d="M16.5405 10.0406C16.9311 9.65008 16.9311 9.01691 16.5405 8.62639C16.15 8.23587 15.5169 8.23587 15.1263 8.62639L10.5001 13.2526L8.54054 11.293C8.15002 10.9025 7.51685 10.9025 7.12633 11.293C6.7358 11.6836 6.7358 12.3167 7.12633 12.7073L9.793 15.3739C10.1835 15.7645 10.8167 15.7645 11.2072 15.3739L16.5405 10.0406Z" fill="#424242"></path></svg>