<svg xmlns:xlink="http://www.w3.org/1999/xlink" xmlns="http://www.w3.org/2000/svg" aria-label="Repost" role="img" viewBox="0 0 24 24" class="x1lliihq x2lah0s x1n2onr6 x19zyb68 x16ye13r x5lhr3w x1i0azm7" style="--x-fill: currentColor; --x-height: 18px; --x-width: 18px;" width="24"  height="24" ><title fill="#424242">Repost</title><path d="M4.51617 6.9986C6.13179 4.58593 8.88099 2.99979 11.9995 2.99979C15.7267 2.99979 18.9259 5.26459 20.2927 8.49676C20.5079 9.00543 21.0946 9.24341 21.6033 9.0283C22.1119 8.81318 22.3499 8.22644 22.1348 7.71777C20.466 3.7716 16.5582 0.999786 11.9995 0.999786C8.27776 0.999786 4.9897 2.84823 2.99988 5.67416V2.9986C2.99988 2.44631 2.55216 1.9986 1.99988 1.9986C1.44759 1.9986 0.999878 2.44631 0.999878 2.9986V7.9986C0.999878 8.55088 1.44759 8.9986 1.99988 8.9986H6.99988C7.55216 8.9986 7.99988 8.55088 7.99988 7.9986C7.99988 7.44631 7.55216 6.9986 6.99988 6.9986H4.51617Z" fill="#424242"></path><path d="M2.39572 14.9713C2.90439 14.7562 3.49113 14.9942 3.70625 15.5029C5.07309 18.735 8.27228 20.9998 11.9995 20.9998C15.118 20.9998 17.8672 19.4137 19.4828 17.001H16.9991C16.4468 17.001 15.9991 16.5533 15.9991 16.001C15.9991 15.4487 16.4468 15.001 16.9991 15.001H21.9991C22.5514 15.001 22.9991 15.4487 22.9991 16.001V21.001C22.9991 21.5533 22.5514 22.001 21.9991 22.001C21.4468 22.001 20.9991 21.5533 20.9991 21.001V18.3255C19.0093 21.1514 15.7212 22.9998 11.9995 22.9998C7.44077 22.9998 3.53298 20.228 1.86419 16.2818C1.64908 15.7732 1.88705 15.1864 2.39572 14.9713Z" fill="#424242"></path></svg>