<svg xmlns:xlink="http://www.w3.org/1999/xlink" xmlns="http://www.w3.org/2000/svg" aria-label="Share" role="img" viewBox="0 0 24 24" class="x1lliihq x2lah0s x1n2onr6 x19zyb68 x16ye13r x5lhr3w x1i0azm7" style="--x-fill: currentColor; --x-height: 18px; --x-width: 18px;" width="24"  height="24" ><title fill="#424242">Share</title><path clip-rule="evenodd" d="M7.2474 1.49853C4.18324 -0.187039 0.600262 2.64309 1.53038 6.01431L3.18181 12L1.53038 17.9857C0.600277 21.3569 4.18324 24.1871 7.2474 22.5015L20.8245 15.0329C23.2153 13.7177 23.2153 10.2823 20.8244 8.96712L7.2474 1.49853ZM3.45835 5.48239C2.99873 3.81649 4.76927 2.41796 6.28345 3.25089L19.8605 10.7195C20.0016 10.7971 20.123 10.8923 20.2247 11H4.98064L3.45835 5.48239ZM4.98064 13L3.45835 18.5176C2.99873 20.1835 4.76927 21.5821 6.28345 20.7491L19.8605 13.2805C20.0016 13.2029 20.123 13.1078 20.2247 13H4.98064Z" fill="#424242" fill-rule="evenodd"></path></svg>