<svg xmlns:xlink="http://www.w3.org/1999/xlink" xmlns="http://www.w3.org/2000/svg" aria-label="Attach text" role="img" viewBox="0 0 24 24" class="x1lliihq x2lah0s x1n2onr6 x19zyb68 x16ye13r x5lhr3w x1gaogpn" style="--x-fill: currentColor; --x-height: 20px; --x-width: 20px;" width="24"  height="24" ><title fill="#999999">Attach text</title><path d="M7.75 7C7.33579 7 7 7.33579 7 7.75C7 8.16421 7.33579 8.5 7.75 8.5H16.25C16.6642 8.5 17 8.16421 17 7.75C17 7.33579 16.6642 7 16.25 7H7.75Z" fill="#999999"></path><path d="M7.75 11C7.33579 11 7 11.3358 7 11.75C7 12.1642 7.33579 12.5 7.75 12.5H16.25C16.6642 12.5 17 12.1642 17 11.75C17 11.3358 16.6642 11 16.25 11H7.75Z" fill="#999999"></path><path d="M7.75 15C7.33579 15 7 15.3358 7 15.75C7 16.1642 7.33579 16.5 7.75 16.5H12.25C12.6642 16.5 13 16.1642 13 15.75C13 15.3358 12.6642 15 12.25 15H7.75Z" fill="#999999"></path><path clip-rule="evenodd" d="M7 1C4.23858 1 2 3.23858 2 6V18C2 20.7614 4.23858 23 7 23H17C19.7614 23 22 20.7614 22 18V6C22 3.23858 19.7614 1 17 1H7ZM4 6C4 4.34315 5.34315 3 7 3H17C18.6569 3 20 4.34315 20 6V18C20 19.6569 18.6569 21 17 21H7C5.34315 21 4 19.6569 4 18V6Z" fill="#999999" fill-rule="evenodd"></path></svg>